<svg width="315" height="316" viewBox="0 0 315 316" fill="none" xmlns="http://www.w3.org/2000/svg">
<path d="M315 136.5C315 211.887 244.485 273 157.5 273C70.5152 273 0 211.887 0 136.5C0 61.1131 70.5152 0 157.5 0C244.485 0 315 61.1131 315 136.5Z" fill="#03A9F4"/>
<path d="M227.684 315.073L178.616 207.886L276.476 207.76L227.684 315.073Z" fill="#03A9F4"/>
<path d="M174.367 170.228C174.367 159.297 173.132 150.687 170.661 144.397C168.19 138.034 164.185 132.531 158.645 127.889C153.104 123.247 148.911 119.017 146.066 115.198C143.146 111.305 141.687 107.037 141.687 102.396C141.687 91.0902 146.553 85.4375 156.286 85.4375C160.778 85.4375 164.41 87.0846 167.18 90.3789C169.95 93.6732 171.41 98.1279 171.56 103.743H209.519C209.369 88.7692 204.652 77.127 195.368 68.8164C186.084 60.431 173.057 56.2383 156.286 56.2383C139.59 56.2383 126.675 60.0941 117.541 67.8057C108.332 75.5173 103.728 86.4857 103.728 100.711C103.728 106.925 104.963 112.578 107.434 117.669C109.904 122.76 113.872 127.964 119.338 133.279L132.253 145.296C135.922 148.815 138.467 152.446 139.89 156.189C141.312 159.858 142.098 164.537 142.248 170.228H174.367ZM178.972 204.368C178.972 198.828 176.988 194.298 173.02 190.779C168.977 187.186 163.96 185.389 157.971 185.389C151.981 185.389 147.002 187.186 143.034 190.779C138.991 194.298 136.97 198.828 136.97 204.368C136.97 209.909 138.991 214.476 143.034 218.069C147.002 221.588 151.981 223.348 157.971 223.348C163.96 223.348 168.977 221.588 173.02 218.069C176.988 214.476 178.972 209.909 178.972 204.368Z" fill="white"/>
</svg>
